Coordinates
version=1
nRows=13
nColumns=36
inDegrees=yes

Units are S.I. units (second, meters, Newtons, ...)
If the header above contains a line with 'inDegrees', this indicates whether rotational values are in degrees (yes) or radians (no).

endheader
time	pelvis_tilt	pelvis_list	pelvis_rotation	pelvis_tx	pelvis_ty	pelvis_tz	hip_flexion_r	hip_adduction_r	hip_rotation_r	knee_angle_r	knee_angle_r_beta	ankle_angle_r	subtalar_angle_r	mtp_angle_r	hip_flexion_l	hip_adduction_l	hip_rotation_l	knee_angle_l	knee_angle_l_beta	ankle_angle_l	subtalar_angle_l	mtp_angle_l	lumbar_extension	lumbar_bending	lumbar_rotation	arm_flex_r	arm_add_r	arm_rot_r	elbow_flex_r	pro_sup_r	arm_flex_l	arm_add_l	arm_rot_l	elbow_flex_l	pro_sup_l
      1.67600000	      4.84343636	     -6.67975651	      0.69413104	      0.58646585	      1.02130530	      0.24157583	     18.04819833	      9.34259477	     -5.83399887	     26.57430212	      0.46380907	      3.19952544	     -0.35093336	     -0.57837769	     -9.06163598	     -4.04737900	      2.02476099	     83.89515235	      1.46424663	    -14.74502501	    -18.03895909	      4.84507037	    -17.81501528	      7.03798608	     -3.47077716	    -45.61818591	    -21.69523986	    -10.95573494	     93.61246714	     90.00021046	    -23.40305278	    -12.13465662	     -3.60715086	    106.34640636	     90.00021046
      1.68000000	      4.73666940	     -6.81266079	      0.50762606	      0.59904365	      1.01685649	      0.24216813	     18.43804761	      9.66762200	     -5.82900727	     28.72311926	      0.50131300	      5.26928935	     -1.52905941	     -0.28894204	     -7.71804237	     -4.25469725	      1.98399994	     86.18924920	      1.50428618	    -13.93491795	    -17.68129773	      4.66894616	    -17.97562182	      7.12988214	     -2.93818499	    -44.61799325	    -22.05582399	    -10.72423839	     93.77435148	     90.00021046	    -23.45027039	    -12.09668409	     -3.68764784	    104.68859380	     90.00021046
      1.68400000	      4.64019954	     -6.95126533	      0.40192313	      0.61148201	      1.01248337	      0.24253649	     18.78019931	      9.93172045	     -6.00464080	     30.61251191	      0.53428913	      7.22774889	     -2.73615623	      2.07520789	     -6.33153099	     -4.46667204	      2.03468410	     88.44845230	      1.54371671	    -13.27307600	    -17.42014136	      4.20793607	    -18.17177545	      7.25510518	     -2.50515732	    -43.53915827	    -22.46618371	    -10.47850476	     93.94302178	     90.00021046	    -23.49939248	    -12.02619524	     -3.81637753	    103.03768529	     90.00021046
      1.68800000	      4.63470898	     -7.02730292	      0.26897987	      0.62401602	      1.00827946	      0.24277683	     19.03986841	     10.11284533	     -6.15095936	     32.50888120	      0.56738701	      8.74254451	     -3.87410811	      2.09573124	     -5.05282626	     -4.64134192	      2.00954525	     90.58904716	      1.58107714	    -12.64236787	    -17.08853260	      4.05385759	    -18.44662381	      7.31372823	     -2.03908229	    -42.43279224	    -22.86116348	    -10.24956325	     94.07401301	     90.00021046	    -23.52816819	    -11.98917265	     -3.85281975	    101.33336933	     90.00021046
      1.69200000	      4.68865640	     -7.11603458	      0.42376099	      0.63651580	      1.00415097	      0.24287777	     19.30997060	     10.17260785	     -6.67486856	     34.57901452	      0.60351766	     10.41636164	     -4.53960629	      3.15649158	     -3.75479592	     -4.80378907	      2.33996148	     92.71062879	      1.61810572	    -12.07884079	    -16.82837355	      3.62529478	    -18.76402711	      7.43355550	     -1.82565843	    -41.25395036	    -23.20827196	     -9.97153175	     94.17278996	     90.00021046	    -23.57056618	    -12.04165028	     -3.88893586	     99.71313078	     90.00021046
      1.69600000	      4.81958098	     -7.20066046	      0.55865111	      0.64931287	      1.00023331	      0.24281335	     19.45587500	     10.18729266	     -7.12639958	     36.69649903	      0.64047473	     12.08586478	     -4.86296958	      3.09697248	     -2.57552359	     -4.93847177	      2.65481594	     94.70099590	      1.65284418	    -11.47947093	    -16.43026734	      3.50561444	    -19.13589082	      7.55326455	     -1.63736199	    -40.03504538	    -23.62669839	     -9.60870271	     94.24844089	     90.00021046	    -23.67234019	    -11.94598002	     -4.07291217	     98.08905380	     90.00021046
      1.70000000	      5.07549502	     -7.28579233	      0.70226497	      0.66220011	      0.99677142	      0.24260662	     19.34786898	     10.20736116	     -7.40060766	     38.67356171	      0.67498099	     13.65565269	     -5.07360634	      3.00208905	     -1.53591512	     -5.07206857	      2.92805635	     96.54008496	      1.68494234	    -11.06011358	    -16.09930432	      3.31595649	    -19.63582067	      7.69521981	     -1.36241329	    -38.82619312	    -24.00901296	     -9.32201411	     94.29285613	     90.00021046	    -23.68779874	    -11.92859590	     -4.12277048	     96.37743750	     90.00021046
      1.70400000	      5.45884267	     -7.27408350	      0.55728307	      0.67507097	      0.99399011	      0.24243953	     18.93537917	     10.22650254	     -7.18466602	     40.39792975	      0.70507689	     15.14587522	     -5.15431609	      2.88411926	     -0.85003899	     -4.89056556	      2.86590357	     98.09633244	      1.71210399	    -10.48539815	    -16.41463976	      3.15814671	    -20.31673941	      7.66933435	     -0.88271811	    -37.47646966	    -24.43313375	     -9.01932823	     94.25455587	     90.00021046	    -23.70582348	    -11.74110594	     -4.18971660	     94.63784739	     90.00021046
      1.70800000	      5.64391654	     -7.60894038	      0.79750812	      0.68803045	      0.99114016	      0.24187438	     18.55119996	     10.52196645	     -7.24344813	     41.67060921	      0.72728933	     16.47269159	     -5.14520401	      2.80807553	      0.32211362	     -5.25840130	      3.26780195	     99.79384334	      1.74173114	    -10.13059681	    -15.98568890	      3.00084696	    -20.72115804	      8.12265833	     -0.63074317	    -36.12191956	    -24.82608051	     -8.69255756	     94.13389699	     90.00021046	    -23.70724710	    -11.57107464	     -4.22049068	     92.82080220	     90.00021046
      1.71200000	      5.90191042	     -7.92634603	      0.57366054	      0.69973607	      0.98850997	      0.24235980	     18.13118309	     11.07726563	     -6.53385013	     42.87217157	      0.74826055	     17.43833126	     -5.34658037	      2.56981142	      1.58916600	     -5.84808909	      3.28991716	    101.46188604	      1.77084398	    -10.19655956	    -14.74837217	      2.07494174	    -21.45395815	      8.34339677	      0.06765692	    -34.54543211	    -25.24545797	     -8.30361643	     94.13816305	     90.00021046	    -23.62950896	    -11.52039883	     -4.23556176	     91.30403644	     90.00021046
      1.71600000	      6.07005862	     -8.08884386	      0.52806512	      0.71210914	      0.98609663	      0.24211215	     17.67046692	     11.35011826	     -6.04222669	     43.92743721	      0.76667841	     18.53105516	     -5.30985214	      2.28115765	      2.81659372	     -6.02302916	      3.45315914	    102.93110764	      1.79648673	    -10.04109536	    -14.19585728	      1.89209122	    -21.94511105	      8.52233809	      0.58416243	    -33.06619256	    -25.58449817	     -8.07742626	     94.05800554	     90.00021046	    -23.55850497	    -11.34423111	     -4.29767403	     89.59639837	     90.00021046
      1.72000000	      6.20828419	     -8.24042739	      0.33434978	      0.72453510	      0.98390122	      0.24215910	     17.14419461	     11.68187673	     -5.36623488	     44.83634786	      0.78254189	     19.56896446	     -5.23531210	      2.03338749	      4.03441006	     -6.21330984	      3.48969950	    104.27164810	      1.81988358	     -9.81928605	    -13.53606944	      1.75307660	    -22.41796813	      8.60588923	      1.17986846	    -31.52645569	    -26.01775402	     -7.67446936	     93.97471161	     90.00021046	    -23.58759708	    -11.19215706	     -4.37772752	     88.00772355	     90.00021046
      1.72400000	      6.33862241	     -8.22886698	      0.25637836	      0.73724475	      0.98195589	      0.24177445	     16.53634504	     11.83923143	     -4.68275135	     45.63581340	      0.79649520	     20.53566388	     -5.31623485	      0.95718885	      5.27289919	     -6.13051277	      3.61189111	    105.46677687	      1.84074251	     -9.78790242	    -13.03488821	      1.04377168	    -22.81413858	      8.57997903	      1.61025278	    -29.98197614	    -26.39353249	     -7.29118006	     93.87250431	     90.00021046	    -23.66113841	    -11.00919047	     -4.45487104	     86.41422828	     90.00021046
